<?xml version="1.0" encoding="utf-8"?>
<!-- Generator: Adobe Illustrator 19.2.1, SVG Export Plug-In . SVG Version: 6.00 Build 0)  -->
<svg version="1.1" id="Layer_1" xmlns="http://www.w3.org/2000/svg" xmlns:xlink="http://www.w3.org/1999/xlink" x="0px" y="0px"
	 viewBox="0 0 657 183" style="enable-background:new 0 0 657 183;" xml:space="preserve">
<style type="text/css">
	.st0{fill:#58595B;}
	.st1{fill:#FCAF2B;}
	.st2{fill:#FFF200;}
	.st3{fill:#F68B1F;}
	.st4{fill:#F47D29;}
	.st5{fill:#F05327;}
	.st6{fill:#F05123;}
	.st7{fill:#E03927;}
</style>
<g>
	<g>
		<path class="st0" d="M115.4,164v-9.5c1.8,0.2,3.5,0.3,5.1,0.3c2.8,0,4.8-0.4,6.2-1.3c1.4-0.8,2.3-2.1,2.8-3.7
			c0.5-1.6,0.7-18.5,0.7-26.9V85.2h-8.4v-9.3h18.9v45.4c0,9.2-0.3,27.4-0.9,31c-0.6,3.6-2.3,6.5-5.2,8.8c-2.9,2.3-7.2,3.4-12.9,3.4
			C119.4,164.6,117.4,164.4,115.4,164z"/>
		<path class="st0" d="M121.6,165c-2.2,0-4.3-0.2-6.3-0.6l-0.3-0.1v-10.3l0.5,0.1c1.7,0.2,3.4,0.3,5,0.3c2.7,0,4.7-0.4,6-1.2
			c1.3-0.8,2.1-1.9,2.6-3.5c0.4-1.4,0.7-17.1,0.7-26.8V85.6h-8.4V75.5H141v45.8c0,9.2-0.3,27.4-0.9,31c-0.6,3.7-2.4,6.7-5.4,9.1
			C131.8,163.8,127.4,165,121.6,165z M115.8,163.7c1.8,0.3,3.8,0.5,5.8,0.5c5.6,0,9.8-1.1,12.6-3.4c2.8-2.2,4.5-5.1,5.1-8.6
			c0.6-3.6,0.9-21.7,0.9-30.9v-45h-18.1v8.5h8.4V123c0,7.2-0.2,25.2-0.7,27c-0.5,1.7-1.5,3-2.9,3.9c-1.5,0.9-3.5,1.3-6.4,1.3
			c-1.5,0-3.1-0.1-4.7-0.3V163.7z"/>
	</g>
</g>
<g>
	<g>
		<polygon class="st0" points="211.4,119.9 211.4,85.2 203.1,85.2 203.1,75.9 221.8,75.9 221.8,119.9 230.1,119.9 230.1,129.2 
			203.1,129.2 203.1,119.9 		"/>
		<path class="st0" d="M230.5,129.7h-27.8v-10.1h8.3V85.6h-8.3V75.5h19.6v44.1h8.3V129.7z M203.5,128.8h26.2v-8.5h-8.3V76.3h-17.9
			v8.5h8.3v35.6h-8.3V128.8z"/>
	</g>
</g>
<g>
	<g>
		<path class="st0" d="M281,75.9V96h-9.4c-0.5-3.9-2-6.8-4.7-8.9c-2.7-2.1-5.8-3.1-9.3-3.1c-4.7,0-8.5,1.7-11.5,5
			c-2.9,3.3-4.4,7.7-4.4,13.1c0,5,1.4,9.5,4.2,13.3c2.8,3.8,6.8,5.8,12.1,5.8c7.4,0,12.7-3.5,16-10.5l8.7,4.1
			c-4.8,10.6-13.1,15.9-25.1,15.9c-8.5,0-15.1-2.9-20-8.7c-4.9-5.8-7.3-12.4-7.3-20c0-8,2.6-14.7,7.9-19.9
			c5.3-5.2,11.4-7.9,18.3-7.9c5.9,0,10.9,1.7,15,5.2v-3.8H281z"/>
		<path class="st0" d="M257.6,131.2c-8.5,0-15.4-3-20.3-8.8c-4.9-5.8-7.4-12.6-7.4-20.2c0-8.1,2.7-14.9,8.1-20.2
			c5.4-5.3,11.6-8,18.6-8c5.7,0,10.6,1.6,14.6,4.8v-3.3h10.2v21h-10.1l0-0.4c-0.5-3.7-2-6.6-4.6-8.6c-2.6-2-5.6-3-9-3
			c-4.6,0-8.3,1.6-11.2,4.9c-2.9,3.2-4.3,7.6-4.3,12.8c0,4.9,1.4,9.3,4.1,13.1c2.7,3.7,6.7,5.6,11.8,5.6c7.1,0,12.4-3.4,15.6-10.3
			l0.2-0.4l9.4,4.4l-0.2,0.4C278.3,125.8,269.7,131.2,257.6,131.2z M256.6,74.8c-6.8,0-12.8,2.6-18,7.7c-5.2,5.1-7.8,11.7-7.8,19.6
			c0,7.4,2.4,14,7.2,19.7c4.8,5.7,11.4,8.5,19.7,8.5c11.6,0,19.8-5.2,24.6-15.3l-7.9-3.7c-3.4,6.9-8.8,10.4-16.2,10.4
			c-5.4,0-9.6-2-12.5-5.9c-2.8-3.9-4.3-8.5-4.3-13.6c0-5.5,1.5-10,4.5-13.4c3-3.4,7-5.1,11.8-5.1c3.6,0,6.8,1.1,9.5,3.2
			c2.7,2.1,4.3,5,4.8,8.8h8.6V76.3H272v4.2l-0.7-0.6C267.4,76.5,262.4,74.8,256.6,74.8z"/>
	</g>
</g>
<g>
	<path class="st0" d="M316.2,121.8c-5,0-9.2-1.5-12.4-4.6c-3.2-3-5.2-7-5.8-12h44.9c-0.2-10.2-3.2-17.9-9.1-23.1
		c-5.8-5.2-12.3-7.7-19.5-7.7c-7.3,0-13.8,2.6-19.4,7.9c-5.6,5.3-8.5,12-8.5,20.2c0,8.6,2.9,15.5,8.7,20.6
		c5.8,5.1,12.8,7.6,20.9,7.6c5.3,0,10.3-1.1,15.1-3.4c4.8-2.3,8.7-5.7,11.7-10.4l-9.3-4.1C329.3,118.8,323.5,121.8,316.2,121.8z
		 M303.8,87c3-2.7,6.6-4.1,10.8-4.1c4.6,0,8.5,1.5,11.6,4.5c3.2,3,5.1,6.4,5.8,10.2h-33.7C299,93.3,300.8,89.7,303.8,87z"/>
	<path class="st0" d="M316,131.2c-8.2,0-15.4-2.6-21.2-7.7c-5.9-5.2-8.8-12.2-8.8-20.9c0-8.3,2.9-15.2,8.6-20.5
		c5.7-5.3,12.3-8.1,19.7-8.1c7.2,0,13.9,2.6,19.8,7.8c5.9,5.2,9,13.1,9.2,23.4l0,0.4h-44.8c0.7,4.6,2.6,8.4,5.7,11.3
		c3.1,3,7.2,4.5,12.1,4.5c7.1,0,12.9-2.9,17-8.7l0.2-0.3l10,4.4l-0.3,0.4c-3,4.7-7,8.3-11.9,10.5C326.4,130,321.3,131.2,316,131.2z
		 M314.3,74.8c-7.2,0-13.6,2.6-19.2,7.8c-5.5,5.2-8.3,11.9-8.3,19.9c0,8.5,2.9,15.3,8.5,20.3c5.7,5,12.6,7.5,20.7,7.5
		c5.2,0,10.2-1.1,14.9-3.4c4.6-2.2,8.4-5.5,11.3-9.8l-8.5-3.8c-4.3,5.8-10.2,8.7-17.5,8.7c-5.1,0-9.4-1.6-12.7-4.7
		c-3.3-3.1-5.3-7.2-6-12.2l-0.1-0.5h44.9c-0.3-9.9-3.3-17.4-8.9-22.4C327.8,77.4,321.3,74.8,314.3,74.8z M332.5,98h-34.7l0.1-0.5
		c0.7-4.4,2.6-8.1,5.6-10.8c3-2.8,6.8-4.2,11-4.2c4.7,0,8.7,1.6,11.9,4.7c3.2,3.1,5.2,6.6,6,10.4L332.5,98z M298.8,97.2h32.7
		c-0.8-3.5-2.7-6.6-5.6-9.5c-3.1-2.9-6.9-4.4-11.4-4.4c-4.1,0-7.6,1.3-10.5,4C301.3,89.8,299.5,93.2,298.8,97.2z"/>
</g>
<g>
	<path class="st0" d="M196.9,129.2V75.9h-19.9v9.3h9.4v28.9c-5.5,4.6-10.7,7-15.5,7c-1.6,0-3-0.4-4-1.3c-1.1-0.9-1.7-2-1.9-3.4
		c-0.2-1.4-0.3-4-0.3-7.9V75.9h-18v9.3h7.6v24.5c0,5.5,0.4,9.5,1.2,12c0.8,2.5,2.3,4.5,4.7,6.1c2.3,1.6,5.3,2.3,8.9,2.3
		c5.6,0,11.5-2.3,17.6-7v6.1H196.9z"/>
	<path class="st0" d="M168.9,130.5c-3.6,0-6.7-0.8-9.1-2.4c-2.4-1.6-4-3.7-4.8-6.3c-0.8-2.5-1.2-6.6-1.2-12.1V85.6h-7.6V75.5h18.8
		v32.9c0,3.9,0.1,6.6,0.3,7.9c0.2,1.3,0.8,2.3,1.8,3.1c1,0.8,2.3,1.2,3.8,1.2c4.7,0,9.8-2.3,15.1-6.7V85.6h-9.4V75.5h20.7v54.2
		h-11.3v-5.7C180.1,128.3,174.3,130.5,168.9,130.5z M147,84.8h7.6v24.9c0,5.5,0.4,9.5,1.1,11.9c0.7,2.4,2.2,4.4,4.5,5.9
		c2.3,1.5,5.2,2.3,8.6,2.3c5.5,0,11.4-2.3,17.4-6.9l0.6-0.5v6.5h9.6V76.3h-19.1v8.5h9.4v29.5l-0.1,0.1c-5.6,4.7-10.9,7-15.8,7
		c-1.7,0-3.1-0.5-4.3-1.4c-1.1-0.9-1.8-2.2-2.1-3.6c-0.2-1.4-0.3-4-0.3-8V76.3H147V84.8z"/>
</g>
<path class="st1" d="M59.8,67.1c-3.1-6.7-3.5-13.6-1.5-19.6c-3.2-1.3-6.6-2-9.8-1.8c-11.2,1-21.2,6.7-22.7,22.3
	c-0.7,6.8,4.7,14.8,14.1,18.7C44.5,77.4,52,70.7,59.8,67.1z"/>
<path class="st2" d="M94.6,32.8c-15-8.6-29,3-32.4,7.2c-1.8,2.3-3.1,4.8-4,7.5c7.5,3.1,14.2,9.8,14.1,16.6
	c11.1-0.1,24.3,2.8,31.1,12.8c1.5-1.1,3-2.4,4.3-3.8C119,62,109.7,41.4,94.6,32.8z"/>
<path class="st3" d="M59.8,67.1c4.1-1.9,8.3-2.9,12.1-3c0.2,0,0.4,0,0.5,0c0-6.7-6.6-13.4-14.1-16.6C56.3,53.6,56.7,60.4,59.8,67.1z
	"/>
<path class="st4" d="M69.5,80c-1-0.9-1.9-1.8-2.8-2.7c-5.4,7.2-13.7,13.1-22,11.1c-1.7-0.4-3.3-0.9-4.8-1.6
	c-1.4,2.9-2.5,6.1-3.2,9.6c-4.4,21.7,23.4,42.8,43.4,31.1c20-11.7,31.6-29.3,26.4-44.5c-0.8-2.3-1.8-4.3-3.1-6.1
	C92.6,85.2,78,87.7,69.5,80z"/>
<path class="st5" d="M66.8,77.3c-3.1-3.3-5.4-6.7-7-10.1C52,70.7,44.5,77.4,40,86.8c1.5,0.6,3.1,1.2,4.8,1.6
	C53,90.3,61.4,84.4,66.8,77.3z"/>
<path class="st6" d="M72.4,64.1c0,0.7-0.1,1.4-0.2,2c-0.7,3.5-2.7,7.4-5.4,11.1c0.9,0.9,1.8,1.8,2.8,2.7c8.5,7.7,23,5.2,34-3.1
	C96.7,66.9,83.5,64,72.4,64.1z"/>
<path class="st7" d="M59.8,67.1c1.6,3.4,3.9,6.9,7,10.1c2.7-3.7,4.7-7.6,5.4-11.1c0.1-0.7,0.2-1.4,0.2-2c-0.2,0-0.4,0-0.5,0
	C68.1,64.2,63.9,65.2,59.8,67.1z"/>
<polygon class="st0" points="395.3,123.7 395.3,129.7 415.5,129.7 415.5,123.7 408.7,123.7 408.7,80.5 415.5,80.5 415.5,74.4 
	396.9,74.4 381.5,113.9 366.4,74.4 348,74.4 348,80.5 354.8,80.5 354.8,123.7 348,123.7 348,129.7 366.9,129.7 366.9,123.7 
	360.7,123.7 360.7,78.3 380.8,130.3 381.7,130.3 402,78.3 402,123.7 "/>
<path class="st0" d="M444.8,73.6c-8.4,0-15.3,2.7-20.5,8.1c-5.2,5.4-7.9,12.2-7.9,20.2c0,4.9,1.1,9.7,3.4,14.3
	c2.2,4.5,5.6,8.1,10.1,10.7c4.5,2.5,9.4,3.8,14.8,3.8c8.4,0,15.4-2.7,20.8-8.1c5.4-5.4,8.2-12.3,8.2-20.5c0-8.1-2.7-14.9-8-20.3
	C460.3,76.3,453.3,73.6,444.8,73.6z M459.6,117.6c-3.8,4.4-8.8,6.6-14.7,6.6c-6,0-10.9-2.2-14.6-6.4c-3.7-4.2-5.5-9.6-5.5-15.9
	c0-6.2,1.9-11.4,5.6-15.5c3.7-4.2,8.6-6.3,14.4-6.3c5.9,0,10.8,2.1,14.7,6.4c3.9,4.2,5.9,9.4,5.9,15.5
	C465.3,108,463.4,113.2,459.6,117.6z"/>
<path class="st0" d="M503.3,129.1c2.4-0.4,4.6-1.2,6.6-2.4c2-1.2,3.6-2.9,4.8-5.1c1.2-2.2,1.8-4.6,1.8-7.3c0-3.1-0.8-5.9-2.4-8.3
	c-1.6-2.4-4-4.1-7-5.2l-1.2-0.4l1.1-0.5c2.2-1,3.8-2.6,4.9-4.6c1.1-2,1.7-4.3,1.7-6.8c0-3.3-1-6.2-2.8-8.6c-1.9-2.4-4.1-3.9-6.5-4.5
	c-2.5-0.6-6.4-0.9-11.5-0.9h-18.2v6h6.9v43.2h-6.9v6h18.6C497.5,129.7,500.9,129.5,503.3,129.1z M489.1,80.5h5.8
	c7.6,0,11.4,2.9,11.4,8.5c0,2.9-0.9,5.1-2.6,6.6c-1.7,1.5-4.6,2.2-8.8,2.2h-5.8V80.5z M489.1,123.7v-19.8h5.4c3.4,0,6.1,0.3,8,0.8
	c1.9,0.5,3.6,1.6,4.8,3.2c1.2,1.6,1.9,3.6,1.9,5.9c0,2.5-0.7,4.6-1.9,6.3c-1.3,1.6-3,2.7-5,3.1c-2,0.4-5.1,0.6-9.3,0.6H489.1z"/>
<polygon class="st0" points="520.4,74.4 520.4,80.5 526.5,80.5 526.5,123.7 520.4,123.7 520.4,129.7 540,129.7 540,123.7 
	533.9,123.7 534,74.4 "/>
<polygon class="st0" points="544.8,74.4 544.8,80.5 552.1,80.5 552.1,123.7 544.8,123.7 544.8,129.7 585.1,129.7 585.1,116 
	578.2,116 578.2,123.7 559.9,123.7 560,74.4 "/>
<polygon class="st0" points="633.2,86.6 633.2,74.4 587.4,74.4 587.4,80.5 594.7,80.5 594.7,123.7 587.4,123.7 587.4,129.7 
	633.2,129.7 633.2,115.9 627.2,115.9 627.2,123.7 602.2,123.7 602.2,104.3 623.1,104.3 623.1,98.2 602.2,98.2 602.2,80.5 
	627.2,80.5 627.2,86.6 "/>
</svg>
